<?xml version="1.0" encoding="utf-8"?>
<!-- Generator: Adobe Illustrator 24.3.0, SVG Export Plug-In . SVG Version: 6.00 Build 0)  -->
<svg version="1.1" id="Layer_1" xmlns="http://www.w3.org/2000/svg" xmlns:xlink="http://www.w3.org/1999/xlink" x="0px" y="0px"
	 viewBox="0 0 1221.48 1080" style="enable-background:new 0 0 1221.48 1080;" xml:space="preserve">
<style type="text/css">
	.st0{fill:#5F20BA;}
</style>
<g>
	<path class="st0" d="M610.63,522.39c-79.59,0-159.18,0.02-238.78-0.04c-4.47,0-9.13,0.08-13.37-1.09
		c-18.18-5.02-25.9-24.41-16.3-41.06c17.87-30.98,36.01-61.8,54.03-92.69c62.88-107.74,125.9-215.4,188.52-323.3
		c10.07-17.36,27.5-19.59,38.45-13.57c4.98,2.74,9.76,7.28,12.64,12.17c36.09,61.17,71.83,122.55,107.64,183.88
		c44.79,76.7,89.54,153.43,134.4,230.09c5.1,8.72,8.13,17.55,4.22,27.48c-4.15,10.53-11.93,16.58-23.21,17.83
		c-3.3,0.37-6.65,0.29-9.98,0.29C769.49,522.4,690.06,522.39,610.63,522.39z"/>
	<path class="st0" d="M310.34,1032.35c-80.6,0-161.2-0.02-241.8,0.02c-10.76,0-20.13-2.92-26.38-12.29
		c-6.8-10.2-6.38-20.54-0.24-30.98c11.8-20.08,23.46-40.24,35.2-60.35c68.62-117.52,137.26-235.02,205.81-352.57
		c4.56-7.82,9.5-14.81,18.81-17.43c13.37-3.77,25.52,0.58,32.72,12.49c8.86,14.66,17.37,29.53,26.01,44.33
		c72.38,123.98,144.65,248.04,217.27,371.88c9.94,16.94,4.27,33.89-7.58,40.17c-5.47,2.9-12.3,4.49-18.52,4.54
		c-50.62,0.35-101.25,0.2-151.88,0.2C369.96,1032.35,340.15,1032.35,310.34,1032.35z"/>
	<path class="st0" d="M911.62,1032.35c-80.6,0-161.19-0.02-241.79,0.02c-10.78,0-20.14-3-26.35-12.36
		c-6.77-10.2-6.24-20.59-0.14-31.01c15.23-25.97,30.37-52,45.55-78C754.57,798.51,820.5,686.18,885.7,573.42
		c11.53-19.94,39.27-21.74,51.98,0.29c49.87,86.46,100.44,172.51,150.77,258.7c30.36,52,60.74,103.99,91.1,155.99
		c9.52,16.31,4.33,34.95-12.02,41.4c-4.65,1.84-10.06,2.44-15.12,2.44C1072.15,1032.39,991.88,1032.35,911.62,1032.35z"/>
</g>
</svg>
